<svg data-v-423bf9ae="" xmlns="http://www.w3.org/2000/svg" viewBox="0 0 485 91" class="iconLeft"><!----><!----><!----><g data-v-423bf9ae="" id="771097b1-3391-4c10-8a2b-536928f46399" fill="black" transform="matrix(4.514672699188946,0,0,4.514672699188946,108.74190777389677,2.042890346828173)"><path d="M2.74 6.03L2.93 7.21L2.93 7.21Q3.60 5.85 5.08 5.85L5.08 5.85L5.08 5.85Q6.34 5.85 6.98 6.68L6.98 6.68L6.98 6.68Q7.62 7.50 7.62 8.86L7.62 8.86L7.62 12.84L5.96 12.84L5.96 8.86L5.96 8.86Q5.96 8.11 5.60 7.72L5.60 7.72L5.60 7.72Q5.24 7.34 4.58 7.34L4.58 7.34L4.58 7.34Q3.92 7.34 3.45 7.92L3.45 7.92L3.45 7.92Q2.98 8.51 2.95 9.69L2.95 9.69L2.95 12.84L1.30 12.84L1.30 6.03L2.74 6.03ZM12.70 5.85L12.70 5.85L12.70 5.85Q13.38 5.85 13.99 6.07L13.99 6.07L13.99 6.07Q14.59 6.29 15.02 6.73L15.02 6.73L15.02 6.73Q15.99 7.71 15.99 9.45L15.99 9.45L15.99 9.45Q15.99 11.16 15.02 12.14L15.02 12.14L15.02 12.14Q14.15 13.03 12.70 13.03L12.70 13.03L12.70 13.03Q11.24 13.03 10.35 12.14L10.35 12.14L10.35 12.14Q9.38 11.17 9.38 9.45L9.38 9.45L9.38 9.45Q9.38 7.70 10.35 6.73L10.35 6.73L10.35 6.73Q11.23 5.85 12.70 5.85ZM14.34 9.44L14.34 9.44L14.34 9.44Q14.34 8.36 13.92 7.82L13.92 7.82L13.92 7.82Q13.50 7.28 12.75 7.28L12.75 7.28L12.75 7.28Q12.00 7.28 11.52 7.82L11.52 7.82L11.52 7.82Q11.05 8.36 11.05 9.44L11.05 9.44L11.05 9.44Q11.05 10.51 11.47 11.05L11.47 11.05L11.47 11.05Q11.90 11.59 12.64 11.59L12.64 11.59L12.64 11.59Q13.38 11.59 13.86 11.05L13.86 11.05L13.86 11.05Q14.34 10.51 14.34 9.44ZM19.39 6.03L19.57 7.21L19.57 7.21Q20.24 5.85 21.73 5.85L21.73 5.85L21.73 5.85Q22.99 5.85 23.63 6.68L23.63 6.68L23.63 6.68Q24.26 7.50 24.26 8.86L24.26 8.86L24.26 12.84L22.61 12.84L22.61 8.86L22.61 8.86Q22.61 8.11 22.25 7.72L22.25 7.72L22.25 7.72Q21.88 7.34 21.22 7.34L21.22 7.34L21.22 7.34Q20.57 7.34 20.10 7.92L20.10 7.92L20.10 7.92Q19.63 8.51 19.60 9.69L19.60 9.69L19.60 12.84L17.95 12.84L17.95 6.03L19.39 6.03ZM28.03 6.03L28.18 6.96L28.18 6.96Q28.83 5.85 30.14 5.85L30.14 5.85L30.14 5.85Q31.40 5.85 32.30 6.80L32.30 6.80L32.30 6.80Q33.25 7.81 33.25 9.44L33.25 9.44L33.25 9.44Q33.25 11.07 32.28 12.08L32.28 12.08L32.28 12.08Q31.39 13.03 30.14 13.03L30.14 13.03L30.14 13.03Q28.90 13.03 28.32 12.29L28.32 12.29L28.32 16.16L26.67 16.16L26.67 6.03L28.03 6.03ZM29.85 11.54L29.85 11.54L29.85 11.54Q30.14 11.54 30.46 11.41L30.46 11.41L30.46 11.41Q30.77 11.28 31.02 11.02L31.02 11.02L31.02 11.02Q31.58 10.43 31.58 9.44L31.58 9.44L31.58 9.44Q31.58 8.46 31.10 7.90L31.10 7.90L31.10 7.90Q30.62 7.34 29.93 7.34L29.93 7.34L29.93 7.34Q29.23 7.34 28.79 7.74L28.79 7.74L28.79 7.74Q28.35 8.13 28.32 8.88L28.32 8.88L28.32 10.09L28.32 10.09Q28.32 10.75 28.78 11.16L28.78 11.16L28.78 11.16Q29.22 11.54 29.85 11.54ZM36.86 6.02L36.86 7.38L36.86 7.38Q37.48 5.91 38.71 5.91L38.71 5.91L38.71 5.91Q38.95 5.91 39.31 6.01L39.31 6.01L39.28 7.66L39.28 7.66Q38.89 7.57 38.51 7.57L38.51 7.57L38.51 7.57Q36.86 7.57 36.86 9.86L36.86 9.86L36.86 12.84L35.21 12.84L35.21 6.02L36.86 6.02ZM43.71 5.85L43.71 5.85L43.71 5.85Q44.39 5.85 45.00 6.07L45.00 6.07L45.00 6.07Q45.60 6.29 46.03 6.73L46.03 6.73L46.03 6.73Q47.00 7.71 47.00 9.45L47.00 9.45L47.00 9.45Q47.00 11.16 46.03 12.14L46.03 12.14L46.03 12.14Q45.16 13.03 43.71 13.03L43.71 13.03L43.71 13.03Q42.25 13.03 41.36 12.14L41.36 12.14L41.36 12.14Q40.39 11.17 40.39 9.45L40.39 9.45L40.39 9.45Q40.39 7.70 41.36 6.73L41.36 6.73L41.36 6.73Q42.24 5.85 43.71 5.85ZM45.35 9.44L45.35 9.44L45.35 9.44Q45.35 8.36 44.93 7.82L44.93 7.82L44.93 7.82Q44.51 7.28 43.76 7.28L43.76 7.28L43.76 7.28Q43.01 7.28 42.53 7.82L42.53 7.82L42.53 7.82Q42.06 8.36 42.06 9.44L42.06 9.44L42.06 9.44Q42.06 10.51 42.48 11.05L42.48 11.05L42.48 11.05Q42.91 11.59 43.65 11.59L43.65 11.59L43.65 11.59Q44.39 11.59 44.87 11.05L44.87 11.05L44.87 11.05Q45.35 10.51 45.35 9.44ZM48.22 7.14L48.22 6.03L49.22 6.03L49.22 5.24L49.22 5.24Q49.22 4.19 49.84 3.63L49.84 3.63L49.84 3.63Q50.40 3.12 51.30 3.12L51.30 3.12L51.30 3.12Q51.87 3.12 52.71 3.29L52.71 3.29L52.39 4.56L52.39 4.56Q52.00 4.42 51.68 4.42L51.68 4.42L51.68 4.42Q51.37 4.42 51.13 4.60L51.13 4.60L51.13 4.60Q50.89 4.77 50.89 5.25L50.89 5.25L50.89 6.03L52.14 6.03L52.14 7.14L50.89 7.14L50.89 12.84L49.22 12.84L49.22 7.14L48.22 7.14ZM54.22 12.84L54.22 6.02L55.87 6.02L55.87 12.84L54.22 12.84ZM54.03 3.84L54.03 3.84L54.03 3.84Q54.03 3.39 54.29 3.13L54.29 3.13L54.29 3.13Q54.56 2.87 55.05 2.87L55.05 2.87L55.05 2.87Q55.52 2.87 55.80 3.13L55.80 3.13L55.80 3.13Q56.07 3.39 56.07 3.84L56.07 3.84L56.07 3.84Q56.07 4.28 55.80 4.54L55.80 4.54L55.80 4.54Q55.52 4.80 55.05 4.80L55.05 4.80L55.05 4.80Q54.56 4.80 54.29 4.54L54.29 4.54L54.29 4.54Q54.03 4.28 54.03 3.84ZM62.27 11.51L62.51 12.67L62.51 12.67Q61.59 13.03 61.05 13.03L61.05 13.03L61.05 13.03Q60.52 13.03 60.12 12.91L60.12 12.91L60.12 12.91Q59.72 12.78 59.42 12.53L59.42 12.53L59.42 12.53Q58.77 11.96 58.77 10.95L58.77 10.95L58.77 7.14L57.82 7.14L57.82 6.03L58.77 6.03L58.77 4.24L60.42 4.24L60.42 6.03L62.27 6.03L62.27 7.14L60.42 7.14L60.42 10.89L60.42 10.89Q60.42 11.73 61.22 11.73L61.22 11.73L61.22 11.73Q61.63 11.73 62.27 11.51L62.27 11.51ZM64.20 12.84L64.20 3.23L65.86 3.23L65.86 12.84L64.20 12.84ZM70.70 8.86L70.70 8.86L70.70 8.86Q71.51 8.86 72.58 9.13L72.58 9.13L72.58 8.46L72.58 8.46Q72.58 7.74 72.29 7.40L72.29 7.40L72.29 7.40Q72.00 7.06 71.35 7.06L71.35 7.06L71.35 7.06Q70.70 7.06 70.35 7.32L70.35 7.32L70.35 7.32Q70 7.57 70 8.05L70 8.05L68.19 8.05L68.19 8.05Q68.19 6.89 69.01 6.37L69.01 6.37L69.01 6.37Q69.83 5.85 71.30 5.85L71.30 5.85L71.30 5.85Q73.40 5.85 74.02 7.32L74.02 7.32L74.02 7.32Q74.23 7.83 74.23 8.51L74.23 8.51L74.23 12.84L72.79 12.84L72.66 11.93L72.66 11.93Q72.00 13.03 70.64 13.03L70.64 13.03L70.64 13.03Q69.33 13.03 68.60 12.39L68.60 12.39L68.60 12.39Q67.93 11.77 67.93 10.83L67.93 10.83L67.93 10.83Q67.93 9.88 68.67 9.37L68.67 9.37L68.67 9.37Q69.41 8.86 70.70 8.86ZM72.58 10.18L72.58 10.18L72.58 10.18Q71.75 9.95 71.04 9.95L71.04 9.95L71.04 9.95Q69.69 9.95 69.69 10.85L69.69 10.85L69.69 10.85Q69.69 11.23 70 11.50L70 11.50L70 11.50Q70.31 11.77 70.99 11.77L70.99 11.77L70.99 11.77Q71.67 11.77 72.11 11.32L72.11 11.32L72.11 11.32Q72.55 10.86 72.58 10.18ZM82.36 6.83L82.36 6.83L82.36 6.83Q83.22 7.81 83.22 9.41L83.22 9.41L83.22 9.41Q83.22 11.00 82.31 12.04L82.31 12.04L82.31 12.04Q81.42 13.03 80.11 13.03L80.11 13.03L80.11 13.03Q79.48 13.03 78.95 12.70L78.95 12.70L78.95 12.70Q78.43 12.36 78.12 11.66L78.12 11.66L77.71 12.84L76.64 12.84L76.64 3.23L78.29 3.23L78.29 6.89L78.29 6.89Q78.93 5.85 80.21 5.85L80.21 5.85L80.21 5.85Q81.49 5.85 82.36 6.83ZM78.29 9.02L78.29 9.02L78.29 9.91L78.29 9.91Q78.32 10.63 78.81 11.09L78.81 11.09L78.81 11.09Q79.27 11.54 79.93 11.54L79.93 11.54L79.93 11.54Q80.60 11.54 81.07 10.96L81.07 10.96L81.07 10.96Q81.55 10.37 81.55 9.42L81.55 9.42L81.55 9.42Q81.55 8.47 81.08 7.90L81.08 7.90L81.08 7.90Q80.61 7.34 79.91 7.34L79.91 7.34L79.91 7.34Q79.21 7.34 78.75 7.80L78.75 7.80L78.75 7.80Q78.29 8.26 78.29 9.02Z"></path></g><!----><g data-v-423bf9ae="" id="90ef7529-7f49-4754-b66b-db5e6d3df4b3" transform="matrix(1.0726867563858002,0,0,1.0726867563858002,-5.734344200083605,-8.624998826070971)" stroke="none" fill="black"><path d="M49.3 8.9c6.8 0 12.3 5.5 12.3 12.3s-5.5 12.3-12.3 12.3S37 28 37 21.2 42.5 8.9 49.3 8.9zM67.3 52.4c-.6.1-1.3.3-1.9.4-9.5 2.9-16.6 11.7-16.6 22.3 0 3.3.7 6.5 2 9.4-6.8.2-13.7-.7-18.5-2.7-1.6-.6-2.9-1.4-3.9-2.3-.9-.9-1.6-1.7-2-2.9-.4-1-.7-2.2-.7-3.5v-.2c0-4.4.7-8.5 1.8-12.1 2.5-8.1 7.3-14.2 12.4-17.6 1.6-1.2 3.2-1.9 4.8-2.5 1.6-.6 3.2-.9 4.6-.9 1.7 0 3.5.4 5.3 1.1 1.6.6 3 1.4 4.6 2.6 3.1 2.1 5.8 5.2 8.1 8.9zM94.1 66.2c0 .6 0 1-.1 1.6-2.9-8.7-10.8-15-20.4-15.7-.7-1.7-1.6-3.2-2.6-4.6-2-3.2-4.5-5.9-7.1-8 3.1-2 6.2-3.2 9-3.2 6.6 0 15.3 6.4 19.2 17.5 1.2 3.6 2 7.7 2 12.4z"></path><path d="M63.7 71.1c-2 3.5.9 6.8 3.2 9 1.3 1.3 4.9 4.3 5.6 4.9.5-.4 2-1.7 3.5-2.9.9-.7 1.7-1.5 2.2-2 2.3-2.3 5.2-5.5 3.2-9-1.9-3.2-6.8-3.3-8.8-.3-2.1-2.9-7-2.9-8.9.3zm25.6 2.4c.1.6.1 1 .1 1.6 0 1.6-.1 3-.6 4.5-2 7.4-8.7 12.9-16.8 12.9-3.7 0-7.1-1.1-10-3.2-2-1.3-3.6-3.2-4.9-5.2-1.6-2.6-2.6-5.8-2.6-8.9 0-8.7 6.5-15.9 14.7-17.2.3-.1.6-.1.9-.1.7-.1 1.3-.1 1.9-.1 1.4 0 2.9.3 4.2.6 7.2 1.5 12.5 7.8 13.1 15.1zM35.5 39c-2.9 2.2-5.5 4.9-7.7 8.4-2.4 3.6-4.3 7.7-5.6 12-1.4 4.5-2.1 9.1-2 13.4 0 1.2 0 2.2.3 3.2-5.2-.6-9.8-2-12.1-4.2-1.7-1.6-2.5-3.5-2.5-5.8 0-18.5 12.4-29.9 21.3-29.9 2.6 0 5.6 1 8.3 2.9zM34.4 11.4c-2 2.9-3.2 6.4-3.2 10.3 0 2.7.6 5.4 1.6 7.8-1.6 1.2-3.6 1.7-5.8 1.7-3.2 0-6.1-1.3-8.1-3.5-.3-.4-.6-.9-1-1.3-1.4-1.9-2.2-4.1-2.2-6.5 0-6.2 5.1-11.3 11.3-11.3 2.9 0 5.4 1 7.4 2.8zM84 19.8c0 2.5-.7 4.6-2 6.5-.4.4-.7.9-1 1.2-2 2.2-4.9 3.5-8.1 3.5-2.5 0-4.8-.7-6.6-2.2.9-2.3 1.4-4.6 1.4-7.2 0-3.5-1.2-6.8-2.9-9.7 2-2 4.8-3.3 8-3.3C78.9 8.5 84 13.5 84 19.8z"></path></g><!----></svg>